replay
version=1
nRows=18
nColumns=40
inDegrees=no
endheader
time	/jointset/ground_pelvis/pelvis_tilt/value	/jointset/ground_pelvis/pelvis_list/value	/jointset/ground_pelvis/pelvis_rotation/value	/jointset/ground_pelvis/pelvis_tx/value	/jointset/ground_pelvis/pelvis_ty/value	/jointset/ground_pelvis/pelvis_tz/value	/jointset/hip_r/hip_flexion_r/value	/jointset/hip_r/hip_adduction_r/value	/jointset/hip_r/hip_rotation_r/value	/jointset/walker_knee_r/knee_angle_r/value	/jointset/patellofemoral_r/knee_angle_r_beta/value	/jointset/ankle_r/ankle_angle_r/value	/jointset/subtalar_r/subtalar_angle_r/value	/jointset/mtp_r/mtp_angle_r/value	/jointset/hip_l/hip_flexion_l/value	/jointset/hip_l/hip_adduction_l/value	/jointset/hip_l/hip_rotation_l/value	/jointset/walker_knee_l/knee_angle_l/value	/jointset/patellofemoral_l/knee_angle_l_beta/value	/jointset/ankle_l/ankle_angle_l/value	/jointset/subtalar_l/subtalar_angle_l/value	/jointset/mtp_l/mtp_angle_l/value	/jointset/back/lumbar_extension/value	/jointset/back/lumbar_bending/value	/jointset/back/lumbar_rotation/value	/jointset/acromial_r/arm_flex_r/value	/jointset/acromial_r/arm_add_r/value	/jointset/acromial_r/arm_rot_r/value	/jointset/elbow_r/elbow_flex_r/value	/jointset/radioulnar_r/pro_sup_r/value	/jointset/radius_hand_r/wrist_flex_r/value	/jointset/radius_hand_r/wrist_dev_r/value	/jointset/acromial_l/arm_flex_l/value	/jointset/acromial_l/arm_add_l/value	/jointset/acromial_l/arm_rot_l/value	/jointset/elbow_l/elbow_flex_l/value	/jointset/radioulnar_l/pro_sup_l/value	/jointset/radius_hand_l/wrist_flex_l/value	/jointset/radius_hand_l/wrist_dev_l/value
0	-0.1733861	-0.1338651785	-0.3080680111	1.175844721	1.048789681	-0.09831928111	0.2939126614	0.1678337046	0.258224622	0.1631424684	0.1631424684	-0.2210595495	-0.1891475133	7.657810021e-06	0.1481948503	-0.1256786687	-0.2810659377	0.09368737421	0.09368737421	-0.105991262	-0.1739911616	5.903095783e-06	0.3304826303	0.916426734	-0.829643864	-0.8921942502	-1.280571644	-1.168624779	0.6294416724	0.2020550968	0.4800029506	-0.7849392356	-0.1283303528	0.7706368684	-1.113622874	1.79401802	0.1884541298	-0.001301333024	5.940428196e-05
0.002777778	-0.1729292668	-0.1336664263	-0.3082547636	1.175669951	1.050478905	-0.09837103564	0.2939236154	0.1673989849	0.2583404736	0.1631112021	0.1631112021	-0.2210294395	-0.1891848725	7.328320133e-06	0.1482137744	-0.1254970418	-0.2811334467	0.093636483	0.093636483	-0.105958177	-0.1740622282	5.861367448e-06	0.3302987991	0.9170296347	-0.8296358715	-0.8934975151	-1.280877471	-1.167533581	0.6297219348	0.2019681453	0.4807615973	-0.7851495278	-0.1279605663	0.7704352173	-1.113572481	1.79392586	0.1884489316	-0.00130221248	6.740451529e-05
0.005555556	-0.1725058359	-0.133486428	-0.3084423009	1.175511153	1.052046634	-0.09842002554	0.2939126161	0.1669808233	0.2584474874	0.1630674174	0.1630674174	-0.2209978413	-0.1892369916	6.918484418e-06	0.1482129214	-0.1253413971	-0.2811631266	0.09359497408	0.09359497408	-0.1059360596	-0.1741129832	5.618452726e-06	0.3301766696	0.91763678	-0.8296477653	-0.8945131432	-1.281150499	-1.166804343	0.6300463964	0.202144663	0.4815928416	-0.7853109241	-0.1276058861	0.7702276752	-1.113535246	1.79386123	0.1884441952	-0.001304112271	7.389967043e-05
0.008333333	-0.1721176706	-0.1333271664	-0.3086138402	1.175369988	1.053475583	-0.09846674676	0.293877486	0.1665763144	0.2585521479	0.1630196214	0.1630196214	-0.2209593074	-0.1893106721	6.413944177e-06	0.1481895442	-0.125209914	-0.2811630335	0.09356566159	0.09356566159	-0.1059186031	-0.1741638034	5.2371934e-06	0.3301178694	0.9182242351	-0.8296773159	-0.8952406917	-1.281409093	-1.166392837	0.6303557489	0.2024162667	0.4824903809	-0.7853940823	-0.1272726486	0.7700018495	-1.113510132	1.793819385	0.1884393146	-0.001306076486	7.8734069e-05
0.011111111	-0.1717666607	-0.1331904952	-0.3087532698	1.175248049	1.054748686	-0.09851167956	0.2938163321	0.1661826187	0.2586612059	0.1629764632	0.1629764632	-0.220908362	-0.1894124799	5.879723381e-06	0.1481409991	-0.1251007158	-0.2811415743	0.09355125753	0.09355125753	-0.1058995551	-0.174234728	4.788358257e-06	0.3301232445	0.918768344	-0.829721547	-0.8956789416	-1.281671258	-1.166254806	0.630591038	0.2026285432	0.4834392912	-0.7853744391	-0.1269669564	0.7697455956	-1.113496102	1.793795583	0.1884337087	-0.001307187805	8.179505062e-05
0.013888889	-0.1714543179	-0.1330787237	-0.3088521596	1.175145114	1.055857795	-0.09855602069	0.2937309201	0.1657986579	0.2587751881	0.1629412077	0.1629412077	-0.2208433123	-0.1895430978	5.378952132e-06	0.1480696449	-0.1250119885	-0.2811017629	0.09355214683	0.09355214683	-0.1058765147	-0.1743330396	4.344510179e-06	0.3301857205	0.919256728	-0.8297815321	-0.8958602822	-1.281947977	-1.166319563	0.6307236825	0.202731377	0.4843914193	-0.7852720201	-0.1266876086	0.7694590255	-1.113491996	1.793786657	0.1884266631	-0.001306939432	8.313234024e-05
0.016666667	-0.1711815504	-0.1329948508	-0.3089117498	1.175058619	1.05680637	-0.09860191801	0.2936275156	0.165425615	0.2588862936	0.1629098844	0.1629098844	-0.220767507	-0.1896956312	4.895224305e-06	0.1479842191	-0.1249420125	-0.2810393182	0.09356564955	0.09356564955	-0.1058521836	-0.1744494039	3.937651511e-06	0.3302881796	0.919691653	-0.8298641368	-0.8958611707	-1.282241347	-1.166481094	0.6307651239	0.2027876333	0.485273567	-0.785154981	-0.1264239547	0.7691582457	-1.113496517	1.793791616	0.1884172681	-0.001305437448	8.301990826e-05
0.019444444	-0.1709490805	-0.1329419078	-0.3089339861	1.174985851	1.057598656	-0.09865157585	0.2935124878	0.1650647928	0.2589862813	0.162877972	0.162877972	-0.2206846854	-0.1898626891	4.380722218e-06	0.1478936532	-0.124889016	-0.2809495805	0.09358875891	0.09358875891	-0.1058297238	-0.1745733236	3.534742065e-06	0.3304125239	0.920076329	-0.8299764342	-0.8957601184	-1.282552857	-1.166630756	0.6307305643	0.2028391739	0.4860350666	-0.7850802066	-0.1261647281	0.7688604558	-1.113508394	1.79380979	0.1884045906	-0.001303023166	8.181131136e-05
0.022222222	-0.1707572085	-0.1329223754	-0.3089209464	1.174924377	1.058239555	-0.0987069527	0.2933914662	0.1647174099	0.2590681369	0.162841417	0.162841417	-0.2205983163	-0.1900375022	3.776797246e-06	0.1478059516	-0.1248510909	-0.2808290139	0.09361862518	0.09361862518	-0.105812063	-0.174695331	3.073868299e-06	0.3305419127	0.9204138847	-0.8301245084	-0.8956280176	-1.282883347	-1.166669078	0.6306339457	0.2029000904	0.4866502359	-0.7850853977	-0.1259000247	0.7685808075	-1.113526409	1.79384034	0.1883877812	-0.001300143054	7.98894078e-05
0.025	-0.1706039144	-0.1329348318	-0.3088753873	1.174873832	1.058738763	-0.09876822962	0.2932656581	0.1643843427	0.2591332932	0.1628000182	0.1628000182	-0.220509616	-0.1902179192	3.115762477e-06	0.1477234743	-0.1248257534	-0.2806818539	0.09365420813	0.09365420813	-0.1057997034	-0.1748138622	2.577003883e-06	0.33067047	0.920707131	-0.8303079773	-0.8954841674	-1.283228893	-1.166569065	0.6304740411	0.2029584173	0.4871280235	-0.7851553731	-0.125629898	0.76831911	-1.113549481	1.793880217	0.1883666643	-0.001297032187	7.742961061e-05
0.027777778	-0.1704861783	-0.1329761303	-0.3088002502	1.174834783	1.059108124	-0.09883480049	0.2931343018	0.1640663113	0.2591868442	0.1627552427	0.1627552427	-0.2204188262	-0.1904038633	2.448633124e-06	0.1476461229	-0.1248102777	-0.2805156838	0.09369530129	0.09369530129	-0.1057920907	-0.1749308968	2.088089178e-06	0.3307974832	0.9209587447	-0.8305238159	-0.8953250821	-1.283583488	-1.166336321	0.6302428	0.2029924269	0.4874910339	-0.7852522176	-0.1253588684	0.7680683335	-1.113576589	1.793925306	0.1883413753	-0.001293721795	7.449006261e-05
0.030555556	-0.1704010183	-0.133043123	-0.3086983618	1.174807805	1.059359495	-0.09890606207	0.292996647	0.1637640257	0.2592337918	0.1627085084	0.1627085084	-0.2203262237	-0.1905952699	1.803965759e-06	0.1475738593	-0.1248019426	-0.2803379791	0.09374171632	0.09374171632	-0.1057887199	-0.1750484098	1.627905673e-06	0.3309225199	0.9211713996	-0.8307692356	-0.8951474019	-1.283941181	-1.165976504	0.629932232	0.2029775875	0.4877639687	-0.7853367027	-0.1250915009	0.7678214641	-1.113606728	1.793971451	0.1883120539	-0.001290135109	7.11035323e-05
0.033333333	-0.1703450145	-0.1331330515	-0.3085715645	1.174793377	1.059505013	-0.09898130705	0.2928512646	0.163478579	0.2592791319	0.16266084	0.16266084	-0.2202327422	-0.1907913206	1.192648486e-06	0.1475061484	-0.124798999	-0.2801558427	0.09379281061	0.09379281061	-0.1057893016	-0.1751666796	1.201445454e-06	0.3310463995	0.921348577	-0.8310410308	-0.8949487141	-1.284291232	-1.165506026	0.629542058	0.2028977327	0.4879687182	-0.7853837197	-0.1248333918	0.7675720327	-1.113640973	1.794017468	0.1882787296	-0.001286180386	6.697187782e-05
0.036111111	-0.1703137157	-0.1332440266	-0.308419619	1.174791749	1.059557444	-0.09905958985	0.2926951733	0.1632119308	0.2593279595	0.1626124362	0.1626124362	-0.2201407367	-0.1909895066	6.095677094e-07	0.1474412574	-0.1248018686	-0.2799756729	0.0938469064	0.0938469064	-0.1057939643	-0.175282223	8.008507728e-07	0.3311724662	0.9214955725	-0.8313347879	-0.8947287085	-1.28461198	-1.164966087	0.629089412	0.2027600179	0.4881172731	-0.7854015339	-0.1245924067	0.767314733	-1.113685012	1.794068849	0.1882411867	-0.00128185505	6.109109736e-05
0.038888889	-0.170302634	-0.1333742259	-0.308242012	1.174803141	1.059529632	-0.09913992894	0.2925253373	0.1629661619	0.2593853733	0.1625634442	0.1625634442	-0.2200527275	-0.1911870901	7.257813897e-08	0.147377432	-0.1248112601	-0.2798037753	0.09390221455	0.09390221455	-0.1058028969	-0.1753910084	4.093905423e-07	0.3313045734	0.9216179148	-0.83164595	-0.8944878604	-1.284880127	-1.164402166	0.6285942034	0.2025763491	0.4882188577	-0.7854033805	-0.1243767402	0.7670444345	-1.113745137	1.794131926	0.188199169	-0.001277089917	5.232844776e-05
0.041666667	-0.1703076249	-0.1335216057	-0.3080388515	1.174827693	1.05943432	-0.09922134885	0.2923392973	0.1627432911	0.2594561242	0.162514053	0.162514053	-0.2199710399	-0.1913814808	-3.639497296e-07	0.1473133994	-0.1248278118	-0.2796461023	0.09395707908	0.09395707908	-0.1058162499	-0.1754891725	9.996703987e-09	0.3314462538	0.9217211443	-0.8319698763	-0.8942272834	-1.28507429	-1.163858185	0.6280763183	0.2023599731	0.4882808836	-0.7854020428	-0.1241937295	0.7667567339	-1.113826949	1.794212412	0.1881524784	-0.001271743221	3.962613956e-05
0.044444444	-0.1703279026	-0.1336819078	-0.3078190313	1.174864473	1.059282924	-0.09930305579	0.2921402745	0.1625444106	0.2595396132	0.1624637065	0.1624637065	-0.2198957905	-0.1915723366	-7.016993273e-07	0.1472526035	-0.1248513472	-0.279502912	0.09401128005	0.09401128005	-0.1058336735	-0.1755759684	-4.039410923e-07	0.3315939636	0.9218113666	-0.8323009637	-0.8939526668	-1.285204468	-1.16333985	0.6275485285	0.2021244481	0.488300073	-0.7854016584	-0.1240376402	0.7664578842	-1.113925955	1.794307698	0.1881019844	-0.001265810772	2.359641717e-05
0.047222222	-0.1703652953	-0.1338491505	-0.3075982405	1.174911716	1.059085833	-0.09938439348	0.2919359195	0.1623698877	0.2596311452	0.1624113045	0.1624113045	-0.2198253766	-0.1917610271	-9.830187557e-07	0.1472021506	-0.1248810478	-0.2793701047	0.09406570815	0.09406570815	-0.1058544316	-0.1756530495	-8.229719873e-07	0.3317387027	0.9218951207	-0.8326328227	-0.8936731913	-1.285304903	-1.162822969	0.627017997	0.2018827182	0.4882655043	-0.7853995825	-0.1238926958	0.7661623468	-1.114029885	1.79440878	0.188049395	-0.001259371901	6.163583394e-06
